# xmcd CD database file
#
# Track frame offsets:
#	150
#	11201
#	24627
#	35949
#	47285
#	60490
#	70713
#	79643
#	93267
#	103590
#	113574
#	121497
#	132521
#	142297
#	155165
#	165497
#	175906
#	185792
#	197480
#	212452
#	224846
#	232537
#
# Disc length: 3205 seconds
#
# Revision: 0
# Processed by: cddbd v1.5.2PL0 Copyright (c) Steve Scherf et al.
# Submitted via: CDex 1.82
#
DISCID=380c8316
DTITLE=New York Jazz Trio - Relaxing Instrumental Christmas Jazz
DYEAR=2017
DGENRE=Jazz
TTITLE0=New York Jazz Trio - Jingle Bells
TTITLE1=New York Jazz Trio - I'll Be Home For Christmas
TTITLE2=New York Jazz Trio - Santa Claus Is Coming To Town
TTITLE3=New York Jazz Trio - O Tannenbaum
TTITLE4=New York Jazz Trio - Shine Over Lake and Shore
TTITLE5=New York Jazz Trio - Silver Bells
TTITLE6=New York Jazz Trio - Do You Hear What I Hear?
TTITLE7=New York Jazz Trio - Last Christmas
TTITLE8=New York Jazz Trio - Bella Notte Fom "Lady And The T
TTITLE9=New York Jazz Trio - White Christmas
TTITLE10=New York Jazz Trio - A Holly Jolly Christmas
TTITLE11=New York Jazz Trio - Silent Night
TTITLE12=New York Jazz Trio - Blue Christmas
TTITLE13=New York Jazz Trio - Santa Baby
TTITLE14=New York Jazz Trio - The Christmas Song "Chestnuts R
TTITLE15=New York Jazz Trio - Sleigh Ride
TTITLE16=New York Jazz Trio - When You Wish Upon A Star
TTITLE17=New York Jazz Trio - Let it Snow
TTITLE18=New York Jazz Trio - Have Yourself a Merry Little Ch
TTITLE19=New York Jazz Trio - Wonderful Peace
TTITLE20=New York Jazz Trio - It's Beginning To Look Alot Lik
TTITLE21=New York Jazz Trio - Karl-Bertil Johnssons Christmas
EXTD=YEAR: 2017
EXTT0=
EXTT1=
EXTT2=
EXTT3=
EXTT4=
EXTT5=
EXTT6=
EXTT7=
EXTT8=
EXTT9=
EXTT10=
EXTT11=
EXTT12=
EXTT13=
EXTT14=
EXTT15=
EXTT16=
EXTT17=
EXTT18=
EXTT19=
EXTT20=
EXTT21=
PLAYORDER=
